
<svg height='300px' width='300px'  fill="#000000" xmlns="http://www.w3.org/2000/svg" xmlns:xlink="http://www.w3.org/1999/xlink" version="1.1" x="0px" y="0px" viewBox="0 0 100 100" enable-background="new 0 0 100 100" xml:space="preserve"><g><path fill="none" stroke="#000000" stroke-width="0.75" stroke-linecap="round" stroke-linejoin="round" stroke-miterlimit="10" d="   M89.125,27.75c0.543,0.684,1.549,1.189,0.594,2.119c-1.118-1.176-1.675,0.554-0.985,1.363c-1.1,0.046-3.481,1.16-3.111,2.271   c0.311,0.932,1.152,0.465,0.78,1.531c-0.225,0.645-1.387,1.238-1.874,1.503c-0.772,0.42-1.146,0.657-1.66,1.457   c-0.075,0.117,0.093,0.395,0.021,0.506c-0.187,0.295-0.751,0.413-0.877,0.722c-0.2,0.494-0.06,0.657,0.019,1.153   c0.1,0.634,0.521,1.509,0.719,2.125c0.192,0.598,0.54,1.394,1.143,1.625c-0.403,0.315-1.163,0.493-1.514,0.878   c-0.253,0.278-0.165,0.721-0.376,0.997c-0.543,0.709-1.73,0.196-1.88,0.875c-0.255,1.152,1.571,1.066,0.477,2.284   c-0.682,0.759-1.719,0.72-2.219-0.052c-1.815,1.146,0.713,4.732-2.012,5.508c-0.075-0.239-0.422-0.599-0.47-0.73   c-0.385,1.076,0.31,1.542,0.353,2.366c0.072,1.347-1.612,1.994-1.355,3.353c0.053,0.046,0.193,0.103,0.246,0.144   c-1.021,0.947-1.819,0.435-2.648,1.134c-0.624,0.525-0.888,2.157-1.996,1.756c-0.256,0.498-0.52,1.315,0.233,1.381   c0.218,0.951-1.051,1.453-0.483,2.22c-0.988,0.88-2.266,1.149-1.732,2.617c0.186-0.051,0.509,0.014,0.693-0.065   c-0.229,0.899-1.331,1.204-1.69,1.988c-0.307,0.67,0.141,2.083-1.375,1.864c-0.033,0.708-0.344,1.809,0.588,1.877   c0.17,0.762-0.763,1.725,0.38,1.744c-0.027,0.535-0.292,1.033-0.573,1.502c1.167,0.516,1.59,0.907,1.58,2.241   c-0.001,0.153,0.293,0.162,0.237,0.488c-0.043,0.255-0.599,0.544-0.614,0.658c-0.071,0.51-0.227,0.693,0.365,0.866   c0.218,1.021-1.031,1.145-1.497,1.856c0.396,0.55,0.358,1.187,1.141,1.375H20.625V74.375c-0.621,0.186-1.496-0.151-2.25-0.125   c-0.694,0.024-1.415,0.311-2.125,0.381c-0.325,0.032-1.203,0.133-1.472-0.003c-0.743-0.379-0.094-0.371-0.52-0.891   c-0.483-0.59-0.918-0.777-1.259-1.612c0,0,1.625-20.625,1.125-28.25c-0.206-1.88-1.875-26.25-1.875-26.25l69.875,0.625   c-0.073,0.286-0.003,0.693,0.021,0.978c1.191,0.383,0.748,0.878,0.747,1.769c-0.001,0.687,0.446,0.429,0.078,1.253   c-0.235,0.526-1.004,0.892-1.353,1.347c-0.771,1.007-2.614,3.089-2.494,4.403L89.125,27.75z"></path></g></svg>