<svg version="1.1" xmlns="http://www.w3.org/2000/svg" xmlns:xlink="http://www.w3.org/1999/xlink" viewBox="0 0 112.2 112.2" xml:space="preserve">
	<path fill="#fff" d="M106.8,108.1c-0.1,1.3-0.7,2.3-1.8,3.1c-1,0.7-2.1,1.1-3.3,1.1c-18.4,0-35.5-4.6-51.3-13.8c-15.4-9.1-27.6-21.3-36.6-36.6 C4.6,46,0,28.9,0,10.5c0-1.2,0.4-2.3,1.1-3.3c0.7-1,1.8-1.6,3.1-1.8L27,0.1c1.2-0.3,2.3-0.1,3.5,0.4c1.2,0.6,2,1.5,2.4,2.6 l10.5,24.6c0.4,1,0.5,2.1,0.3,3.3c-0.2,1.2-0.8,2.1-1.9,2.9L28.7,44.7c3.9,8.6,9.3,16.3,16,22.9s14.3,12,22.8,15.9l11-13.2 c0.7-0.9,1.6-1.5,2.7-1.8c1.1-0.3,2.2-0.2,3.4,0.2l24.6,10.5c1,0.4,1.8,1.2,2.4,2.4c0.6,1.2,0.7,2.3,0.4,3.5L106.8,108.1z"/>
</svg>
